<?xml version="1.0" encoding="utf-8"?>
<!-- Generator: Adobe Illustrator 25.2.1, SVG Export Plug-In . SVG Version: 6.00 Build 0)  -->
<svg version="1.1" id="Isolationsmodus" xmlns="http://www.w3.org/2000/svg" xmlns:xlink="http://www.w3.org/1999/xlink" x="0px"
	 y="0px" viewBox="0 0 50 50" style="enable-background:new 0 0 50 50;" xml:space="preserve">
<style type="text/css">
	.st0{fill:#E40136;}
</style>
<path class="st0" d="M14.9,7.6L9.5,5.3v1.3l3.7,1.5L9.5,9.6v1.3l5.4-2.3V7.6z M40.5,9.6l-3.7-1.5l3.7-1.5V5.3l-5.4,2.3v1l5.4,2.3
	V9.6z M33.5,36c-3.3,0-6,2.3-6.8,5.3c-1.1-0.4-2.4-0.5-3.4,0c-0.8-3-3.5-5.3-6.8-5.3c-3.9,0-7,3.1-7,7s3.1,7,7,7c3.9,0,7-3.1,7-7
	c0-0.1,0-0.2,0-0.3c0.9-0.5,2.1-0.5,3,0c0,0.1,0,0.2,0,0.3c0,3.9,3.1,7,7,7c3.9,0,7-3.1,7-7S37.4,36,33.5,36z M16.5,48.6
	c-3.1,0-5.6-2.5-5.6-5.6s2.5-5.6,5.6-5.6s5.6,2.5,5.6,5.6S19.6,48.6,16.5,48.6z M33.5,48.6c-3.1,0-5.6-2.5-5.6-5.6s2.5-5.6,5.6-5.6
	s5.6,2.5,5.6,5.6S36.6,48.6,33.5,48.6z M44.6,18c-4.6-6.3-11.9-7.2-12.2-7.3l-0.1,0c1-1.5,1.6-3.1,1.6-4.4c0-3.5-4-6.3-8.9-6.3
	s-8.9,2.8-8.9,6.3c0,1.3,0.6,2.9,1.6,4.4c-5.3,0.8-9.4,3.2-12.1,7C0.1,25.6,2.1,36.8,2.3,38l0,0c0,0,0,0,0,0.1
	c0.1,0.6,0.4,1.7,0.9,3.7c0.5,1.9,1,4.6,1,4.6l1.2,0c0.2-1.5,1.2-7.3,1.6-9.5c7.1-1.3,12.4-5.6,14.6-7.7l-0.5,6.2l0.8-0.2
	c5.3-1.3,10.3-6.3,11.9-8c3.6,4.3,8.5,8.9,9.4,9.8l0.9,9.5l1.2,0l2.1-8.9C49.1,29.4,48.1,22.8,44.6,18z M40.8,23.1l-2.6-0.4l1.7,2.2
	l-1.6,0.9l-1-2.5l-1,2.5l-1.6-1l1.6-2.2L33.5,23v-1.9l2.7,0.4l-1.7-2.1l1.6-0.9l1,2.4l1-2.5l1.6,1l-1.7,2.1l2.7-0.3L40.8,23.1z"/>
</svg>
